<?xml version="1.0" encoding="UTF-8"?>
<!-- Generator: visioncortex VTracer 0.6.4 -->
<svg version="1.1" xmlns="http://www.w3.org/2000/svg" width="500" height="400">
<path d="M0 0 C1.15 3.46 0.81 4.88 0.07 8.41 C-0.17 9.53 -0.4 10.65 -0.64 11.8 C-0.9 13.02 -1.17 14.24 -1.44 15.5 C-1.84 17.4 -1.84 17.4 -2.25 19.34 C-3 22.82 -3.75 26.29 -4.51 29.77 C-5.01 32.06 -5.5 34.35 -5.99 36.63 C-6.83 40.56 -7.69 44.47 -8.56 48.39 C-8.89 49.91 -9.22 51.42 -9.55 52.94 C-12.4 66.22 -16.24 79.19 -27.98 87.38 C-36.99 92.24 -46.62 92.29 -56.62 92.19 C-57.81 92.19 -59 92.19 -60.23 92.19 C-66 92.16 -71.23 91.82 -77 91 C-76.01 85.72 -75.02 80.44 -74 75 C-70.61 73.87 -69.52 74.19 -66.12 75 C-58.92 76.4 -49.92 77.25 -43.38 73.25 C-38.92 69.03 -37.46 64.69 -36.06 58.79 C-35.9 58.09 -35.73 57.4 -35.56 56.69 C-35.03 54.48 -34.52 52.27 -34 50.06 C-33.65 48.61 -33.31 47.17 -32.96 45.72 C-31.06 37.72 -29.27 29.71 -27.61 21.66 C-27 19 -27 19 -26 17 C-26.99 17.5 -26.99 17.5 -28 18 C-29.52 18.08 -31.05 18.11 -32.57 18.1 C-33.47 18.09 -34.36 18.09 -35.29 18.09 C-36.22 18.08 -37.16 18.07 -38.12 18.06 C-39.07 18.06 -40.01 18.05 -40.99 18.05 C-43.33 18.04 -45.66 18.02 -48 18 C-47.75 16.04 -47.51 14.09 -47.26 12.13 C-47.02 10.13 -46.79 8.13 -46.56 6.12 C-46 3 -46 3 -44 1 C-40.92 0.68 -40.92 0.68 -36.97 0.59 C-36.27 0.57 -35.57 0.55 -34.84 0.53 C-32.58 0.47 -30.32 0.42 -28.06 0.38 C-26.57 0.34 -25.09 0.3 -23.6 0.26 C-15.73 0.06 -7.87 -0.06 0 0 Z " fill="#F39024" transform="translate(151,120)"/>
<path d="M0 0 C4.29 0 8.58 0 13 0 C13.14 4.83 12.72 8.97 11.54 13.65 C11.23 14.89 10.93 16.14 10.61 17.42 C10.45 18.07 10.29 18.72 10.12 19.38 C7.49 29.95 5.22 40.36 4.29 51.24 C4 54 4 54 3 55 C0.98 55.07 -1.04 55.08 -3.06 55.06 C-4.17 55.05 -5.27 55.04 -6.41 55.04 C-7.26 55.02 -8.12 55.01 -9 55 C-9.33 54.01 -9.66 53.02 -10 52 C-10.47 52.3 -10.95 52.6 -11.43 52.91 C-16.91 56.06 -20.88 56.6 -27 55 C-30.81 53.51 -31.77 52.4 -33.81 48.81 C-36.14 41.34 -35.14 36.46 -32.27 29.39 C-28.36 22.01 -22.71 18.74 -15 16 C-11.16 15.55 -7.88 15.69 -4 16 C-2.68 10.72 -1.36 5.44 0 0 Z M-18.88 30.62 C-20.62 34.31 -21.25 37.93 -21 42 C-19.58 44.76 -19.58 44.76 -17 46 C-14.42 46.32 -14.42 46.32 -12 45 C-8.27 40.64 -6.97 36.54 -6 31 C-6.27 28.13 -6.27 28.13 -7 26 C-11.58 26 -15.41 27.62 -18.88 30.62 Z " fill="#000000" transform="translate(293,148)"/>
<path d="M0 0 C1.37 0.02 1.37 0.02 2.78 0.04 C3.7 0.04 4.62 0.05 5.56 0.06 C6.27 0.07 6.98 0.09 7.71 0.1 C8.37 1.42 9.03 2.74 9.71 4.1 C10.5 3.44 11.28 2.78 12.09 2.1 C16.39 -0.74 20.74 -0.81 25.71 0.1 C29.52 1.8 32.01 3.68 33.88 7.44 C35.75 13.4 35.7 19.81 32.96 25.47 C29.13 32.04 24.91 36.27 17.84 39.35 C12.99 40.51 8.51 40.7 3.71 39.1 C2.39 44.05 1.07 49 -0.29 54.1 C-4.58 54.1 -8.87 54.1 -13.29 54.1 C-12.68 46.18 -11.21 38.7 -9.41 30.97 C-7.34 21.92 -5.41 12.89 -3.83 3.75 C-3.09 0.13 -3.09 0.13 0 0 Z M11.15 12.04 C6.89 17.39 5.19 23.24 5.71 30.1 C8.72 30.46 10.8 30.7 13.71 30.1 C17.18 27.35 19.32 24.27 20.71 20.1 C21.17 15.39 21.17 15.39 19.46 11.16 C16.12 9.13 14.1 9.8 11.15 12.04 Z " fill="#010101" transform="translate(198.28515625,163.90234375)"/>
<path d="M0 0 C-0.61 4.13 -2.04 7.33 -4 11 C-4.53 10.84 -5.07 10.68 -5.62 10.51 C-8.49 9.89 -11.18 9.83 -14.12 9.81 C-15.71 9.79 -15.71 9.79 -17.32 9.77 C-20.15 9.72 -20.15 9.72 -22 12 C-22.12 14.01 -22.12 14.01 -21 16 C-18.41 17.85 -18.41 17.85 -15.25 19.44 C-4.95 25.16 -4.95 25.16 -3 31 C-2.46 36.63 -3.45 40.61 -7 45 C-13.56 51.29 -21.39 52.43 -30.17 52.26 C-34.6 51.85 -39 51 -43 49 C-44 46 -44 46 -43.22 43.96 C-42.84 43.25 -42.46 42.54 -42.06 41.81 C-41.49 40.74 -41.49 40.74 -40.91 39.64 C-40.61 39.1 -40.31 38.56 -40 38 C-39.45 38.14 -38.91 38.29 -38.35 38.44 C-32.95 39.77 -27.57 40.76 -22 40 C-18.78 38.33 -18.78 38.33 -18.31 35.38 C-18.21 34.59 -18.11 33.81 -18 33 C-18.57 32.72 -19.14 32.44 -19.72 32.14 C-32.6 25.67 -32.6 25.67 -36 21 C-37.5 16.37 -37.48 12.26 -35.62 7.75 C-32.97 3.12 -28.86 0.91 -24 -1 C-15.91 -3.03 -7.91 -2.39 0 0 Z " fill="#010101" transform="translate(188,152)"/>
<path d="M0 0 C3.57 2.96 4.8 4.95 5.94 9.44 C5.4 13.43 4.63 15.64 2 18.69 C-4.73 22.53 -12.43 23.72 -20.06 24.44 C-18.37 26.52 -17.53 27.37 -14.83 27.77 C-14 27.74 -13.17 27.71 -12.31 27.69 C-10.99 27.65 -10.99 27.65 -9.65 27.61 C-6.4 27.39 -3.27 26.99 -0.06 26.44 C0.91 32.49 0.91 32.49 0.94 34.44 C-3.07 38.45 -10.14 38.54 -15.62 38.81 C-21.91 38.65 -27.19 36.35 -31.56 31.88 C-34.45 27.18 -34.68 22.8 -34.06 17.44 C-31.77 10.08 -28.32 4.5 -21.56 0.62 C-14.76 -2.55 -6.92 -3.36 0 0 Z M-17 9.25 C-19.29 11.18 -19.29 11.18 -19.06 13.44 C-12.75 13.81 -12.75 13.81 -7.06 11.44 C-7.06 10.45 -7.06 9.46 -7.06 8.44 C-12.25 7.18 -12.25 7.18 -17 9.25 Z " fill="#010101" transform="translate(339.0625,165.5625)"/>
<path d="M0 0 C2.4 -0.05 4.79 -0.09 7.19 -0.12 C8.2 -0.15 8.2 -0.15 9.23 -0.18 C13.27 -0.22 16.42 0.05 20 2 C22.38 5.41 23.01 7.4 22.94 11.56 C21.92 15.3 20.68 17.24 18 20 C17.34 20.33 16.68 20.66 16 21 C16.36 21.63 16.72 22.25 17.09 22.9 C17.79 24.12 17.79 24.12 18.5 25.38 C18.96 26.19 19.43 27 19.91 27.84 C21 30 21 30 21 32 C22.32 32.33 23.64 32.66 25 33 C24.94 31.91 24.88 30.81 24.81 29.69 C25 26 25 26 26.5 24.06 C27.24 23.54 27.24 23.54 28 23 C27.34 22.34 26.68 21.68 26 21 C25.67 15.67 25.67 15.67 27 13 C27.66 13 28.32 13 29 13 C29 12.34 29 11.68 29 11 C31.85 9.57 33.83 9.69 37 10 C39.68 11.41 39.68 11.41 42 14 C42.62 17.27 42.47 20.44 42.31 23.75 C42.29 24.64 42.27 25.53 42.24 26.44 C42.19 28.63 42.1 30.81 42 33 C43.32 33 44.64 33 46 33 C46 34.32 46 35.64 46 37 C43.75 37.69 43.75 37.69 41 38 C38.69 36.56 38.69 36.56 37 35 C36.28 35.54 35.56 36.07 34.81 36.62 C32 38 32 38 29.25 37.25 C27 36 27 36 26 35 C25.67 35.66 25.34 36.32 25 37 C22.36 37 19.72 37 17 37 C14.36 32.05 11.72 27.1 9 22 C9 25.3 9 28.6 9 32 C9.66 32.33 10.32 32.66 11 33 C10.67 34.32 10.34 35.64 10 37 C6.7 37 3.4 37 0 37 C-0.33 35.68 -0.66 34.36 -1 33 C0.49 32.5 0.49 32.5 2 32 C2 23.09 2 14.18 2 5 C1.01 4.67 0.02 4.34 -1 4 C-0.67 2.68 -0.34 1.36 0 0 Z M8 5 C8 8.63 8 12.26 8 16 C12.13 16.31 12.13 16.31 15.94 14.94 C17.63 11.85 16.74 9.33 16 6 C14.82 4.58 14.82 4.58 11.44 4.94 C9.74 4.97 9.74 4.97 8 5 Z M32 15 C31.34 17.31 30.68 19.62 30 22 C33.47 21.5 33.47 21.5 37 21 C37 19.35 37 17.7 37 16 C35.35 15.67 33.7 15.34 32 15 Z M31 27 C30.11 29.04 30.11 29.04 30 31 C31.85 31.69 31.85 31.69 34 32 C34.99 31.34 35.98 30.68 37 30 C37.25 27.42 37.25 27.42 37 25 C34.75 25 32.97 26.02 31 27 Z " fill="#010101" transform="translate(206,214)"/>
<path d="M0 0 C1.67 -0.02 1.67 -0.02 3.37 -0.04 C6.53 0.19 8.72 0.84 11.56 2.19 C10.5 5.59 9.55 8.2 7.56 11.19 C6.86 11.1 6.17 11.02 5.45 10.93 C4.08 10.78 4.08 10.78 2.69 10.62 C1.78 10.52 0.88 10.42 -0.05 10.31 C-2.45 9.99 -2.45 9.99 -4.44 11.19 C-4.44 11.85 -4.44 12.51 -4.44 13.19 C-3.83 13.5 -3.23 13.82 -2.61 14.14 C6.56 19.05 6.56 19.05 8.56 22.19 C9.52 27 9.08 30.26 6.69 34.56 C2.28 39.05 -4.41 40.27 -10.5 40.56 C-15.23 40.11 -18.99 38.85 -23.44 37.19 C-22.78 34.22 -22.12 31.25 -21.44 28.19 C-16.16 28.85 -10.88 29.51 -5.44 30.19 C-5.98 26.15 -5.98 26.15 -8.62 24.7 C-9.51 24.24 -10.4 23.78 -11.31 23.31 C-14.6 21.43 -16.35 20.3 -18.69 17.25 C-19.71 13.07 -19.25 11.09 -17.44 7.19 C-12.12 1.26 -7.85 0.05 0 0 Z " fill="#010101" transform="translate(399.4375,163.8125)"/>
<path d="M0 0 C-0.14 1.63 -0.29 3.25 -0.44 4.88 C-0.52 5.78 -0.6 6.68 -0.68 7.62 C-1 10 -1 10 -2 12 C-3.59 12.4 -5.2 12.74 -6.81 13.06 C-10.59 14.15 -10.59 14.15 -13.45 16.7 C-16.17 22.49 -17.19 28.92 -18.39 35.16 C-19 38 -19 38 -20 39 C-22.19 39.07 -24.38 39.08 -26.56 39.06 C-28.36 39.05 -28.36 39.05 -30.19 39.04 C-31.12 39.02 -32.05 39.01 -33 39 C-32.27 31.27 -30.93 23.7 -29.5 16.06 C-29.27 14.83 -29.05 13.6 -28.82 12.33 C-27.13 3.26 -27.13 3.26 -26 1 C-22.37 1 -18.74 1 -15 1 C-14.67 2.32 -14.34 3.64 -14 5 C-12.82 4.04 -12.82 4.04 -11.62 3.06 C-7.51 -0.17 -5.21 -0.1 0 0 Z " fill="#000000" transform="translate(379,164)"/>
<path d="M0 0 C4.14 0.86 5.43 2.27 8 5.62 C8.6 8.76 8.48 11.76 8.31 14.94 C8.29 15.77 8.27 16.61 8.24 17.47 C8.19 19.52 8.1 21.57 8 23.62 C9.65 23.3 11.3 22.97 13 22.62 C13.33 17.68 13.66 12.72 14 7.62 C13.01 7.29 12.02 6.97 11 6.62 C11.25 4.75 11.25 4.75 12 2.62 C13.75 1.31 13.75 1.31 16 0.62 C17.67 0.93 19.34 1.26 21 1.62 C23.73 1.25 23.73 1.25 26 0.62 C28 3.62 28 3.62 27.62 5.81 C27.42 6.41 27.21 7.01 27 7.62 C25.68 7.62 24.36 7.62 23 7.62 C22.34 7.96 21.68 8.28 21 8.62 C20.97 10.85 20.95 13.08 20.94 15.31 C20.93 16.55 20.91 17.8 20.9 19.07 C20.99 22.09 21.29 24.71 22 27.62 C21.25 27.61 20.5 27.6 19.73 27.59 C18.75 27.58 17.76 27.57 16.75 27.56 C15.78 27.55 14.8 27.54 13.8 27.53 C11.08 27.52 11.08 27.52 8.81 28.19 C6.13 28.83 4.42 27.77 2 26.62 C1.67 26.95 1.34 27.28 1 27.62 C-5.27 28.09 -5.27 28.09 -7.88 26.44 C-9.35 24.05 -9.87 22.44 -10 19.62 C-8.56 16.94 -8.56 16.94 -7 14.62 C-7 13.97 -7 13.31 -7 12.62 C-7.33 12.29 -7.66 11.97 -8 11.62 C-8.55 7.59 -8.33 6.07 -5.88 2.75 C-3 0.62 -3 0.62 0 0 Z M-2 5.62 C-2.66 7.94 -3.32 10.25 -4 12.62 C-2.02 12.29 -0.04 11.97 2 11.62 C2 9.65 2 7.66 2 5.62 C0.68 5.62 -0.64 5.62 -2 5.62 Z M-3 16.62 C-3.33 18.28 -3.66 19.93 -4 21.62 C-2.11 22.31 -2.11 22.31 0 22.62 C0.66 21.97 1.32 21.31 2 20.62 C2 19.31 2 17.99 2 16.62 C0.35 16.62 -1.3 16.62 -3 16.62 Z " fill="#010101" transform="translate(381,223.375)"/>
<path d="M0 0 C0 7.26 0 14.52 0 22 C3.75 23.4 3.75 23.4 6 22 C6.31 19.45 6.51 17 6.62 14.44 C6.68 13.37 6.68 13.37 6.74 12.28 C6.84 10.52 6.92 8.76 7 7 C6.01 6.67 5.02 6.34 4 6 C4 4.68 4 3.36 4 2 C6.91 0.74 8.8 0 12 0 C12.33 0.66 12.66 1.32 13 2 C13.66 1.34 14.32 0.68 15 0 C18.11 -0.49 19.52 -0.33 22.15 1.45 C24.91 5.26 24.44 8.67 24.25 13.25 C24.23 14.09 24.21 14.93 24.2 15.8 C24.15 17.87 24.08 19.93 24 22 C24.99 22.33 25.98 22.66 27 23 C27 24.32 27 25.64 27 27 C23.37 27 19.74 27 16 27 C16.33 25.35 16.66 23.7 17 22 C17.66 22 18.32 22 19 22 C18.67 17.05 18.34 12.1 18 7 C16.35 7.33 14.7 7.66 13 8 C12.67 12.62 12.34 17.24 12 22 C12.99 22.33 13.98 22.66 15 23 C15 24.32 15 25.64 15 27 C7.74 27 0.48 27 -7 27 C-7.33 25.68 -7.66 24.36 -8 23 C-7.34 22.67 -6.68 22.34 -6 22 C-5.69 19.45 -5.49 17 -5.38 14.44 C-5.34 13.73 -5.3 13.02 -5.26 12.28 C-5.16 10.52 -5.08 8.76 -5 7 C-5.99 6.67 -6.98 6.34 -8 6 C-7.75 4.12 -7.75 4.12 -7 2 C-4.42 0.28 -3.15 0 0 0 Z " fill="#010101" transform="translate(303,224)"/>
<path d="M0 0 C4.29 0 8.58 0 13 0 C12.39 8.05 10.87 15.65 9 23.5 C8.73 24.68 8.45 25.86 8.17 27.07 C6.15 35.71 6.15 35.71 5 38 C0.71 38 -3.58 38 -8 38 C-7.33 30.19 -5.73 22.7 -4 15.06 C-3.59 13.22 -3.59 13.22 -3.17 11.33 C-1.14 2.28 -1.14 2.28 0 0 Z " fill="#000000" transform="translate(243,165)"/>
<path d="M0 0 C0.99 0 1.98 0 3 0 C5.12 0.31 5.12 0.31 7 1 C7.33 1.99 7.66 2.98 8 4 C7.67 4.66 7.34 5.32 7 6 C6.34 6 5.68 6 5 6 C5.1 7.22 5.21 8.43 5.31 9.69 C5.33 13.33 5.09 13.88 2.69 16.94 C0 19 0 19 -3 20 C-1.74 20.39 -0.48 20.78 0.81 21.19 C3.79 22.31 4.92 22.91 7.06 25.38 C8.18 28.5 8.12 29.89 7 33 C5.13 36.06 4.47 36.84 1 38 C-2.68 38.18 -5.85 38.26 -9.44 37.44 C-12.05 35.03 -11.83 32.42 -12 29 C-11.83 28.29 -11.67 27.59 -11.5 26.86 C-11.05 24.27 -10.99 22.15 -11.08 19.53 C-11.1 18.71 -11.13 17.89 -11.16 17.05 C-11.22 15.35 -11.3 13.65 -11.39 11.95 C-11.5 7.47 -11.47 5.62 -8.68 1.93 C-5.46 -0.39 -3.88 -0.42 0 0 Z M-5 5 C-6.2 10.28 -6.2 10.28 -4 15 C-3.34 15 -2.68 15 -2 15 C-0.38 12.43 0.04 11.32 -0.38 8.25 C-0.58 7.51 -0.79 6.76 -1 6 C-2.32 5.67 -3.64 5.34 -5 5 Z M-7 28 C-7.04 29.67 -7.04 31.33 -7 33 C-4.03 33 -1.06 33 2 33 C2.33 31.68 2.66 30.36 3 29 C0.16 27.31 -4.24 25.24 -7 28 Z " fill="#010101" transform="translate(364,224)"/>
<path d="M0 0 C2.3 1.87 3.68 3.36 5 6 C5.07 8.88 5.09 11.74 5.06 14.62 C5.06 15.43 5.05 16.23 5.05 17.05 C5.04 19.04 5.02 21.02 5 23 C6.32 23.33 7.64 23.66 9 24 C9 24.99 9 25.98 9 27 C5.97 27.86 4.5 28.22 1.56 26.94 C-1.89 25.67 -3.6 26.84 -7 28 C-9.68 27.26 -10.65 26.46 -12.31 24.25 C-13.48 20.42 -12.54 17.21 -10.94 13.62 C-10.63 13.09 -10.32 12.55 -10 12 C-10.33 11.67 -10.66 11.34 -11 11 C-11.38 7.69 -11.38 7.69 -11 4 C-7.7 0.21 -4.96 -0.84 0 0 Z M-5 5 C-6.49 8.47 -6.49 8.47 -8 12 C-4.54 11.5 -4.54 11.5 -1 11 C-1 9.35 -1 7.7 -1 6 C-2.32 5.67 -3.64 5.34 -5 5 Z M-7 17 C-7 18.65 -7 20.3 -7 22 C-3.71 21.62 -3.71 21.62 -1 20 C-0.96 18.33 -0.96 16.67 -1 15 C-3.08 15 -5.1 16.22 -7 17 Z " fill="#010101" transform="translate(276,224)"/>
<path d="M0 0 C3.28 0.99 4.28 1.39 6.31 4 C6.74 5.99 6.74 5.99 6.82 8.23 C6.88 9.43 6.88 9.43 6.93 10.66 C6.95 11.5 6.98 12.33 7 13.19 C7.05 14.45 7.05 14.45 7.1 15.75 C7.19 17.83 7.25 19.92 7.31 22 C8.3 22.33 9.29 22.66 10.31 23 C10.31 24.32 10.31 25.64 10.31 27 C8.06 27.69 8.06 27.69 5.31 28 C3 26.56 3 26.56 1.31 25 C0.59 25.54 -0.13 26.07 -0.88 26.62 C-3.69 28 -3.69 28 -6.38 27.38 C-8.69 26 -8.69 26 -10.69 23 C-11.02 19.04 -10.78 16.4 -8.69 13 C-9.02 13 -9.35 13 -9.69 13 C-9.99 10.07 -10.19 7.86 -9.69 5 C-6.52 1.22 -4.98 0 0 0 Z M-3.69 5 C-4.35 7.31 -5.01 9.62 -5.69 12 C-2.22 11.5 -2.22 11.5 1.31 11 C1.31 9.35 1.31 7.7 1.31 6 C-0.34 5.67 -1.99 5.34 -3.69 5 Z M-4.69 17 C-5.57 19.04 -5.57 19.04 -5.69 21 C-3.84 21.69 -3.84 21.69 -1.69 22 C-0.7 21.34 0.29 20.68 1.31 20 C1.56 17.42 1.56 17.42 1.31 15 C-0.94 15 -2.72 16.02 -4.69 17 Z " fill="#010101" transform="translate(341.6875,224)"/>
<path d="M0 0 C0.1 4.61 0.17 9.22 0.22 13.82 C0.24 15.39 0.27 16.96 0.3 18.52 C0.35 20.78 0.37 23.04 0.39 25.29 C0.41 25.99 0.43 26.69 0.45 27.4 C0.45 31 0.08 32.88 -1.9 35.92 C-4.07 38.07 -4.97 38.91 -8 39 C-10.25 38.06 -10.25 38.06 -12 37 C-12 35.02 -12 33.04 -12 31 C-8 31 -8 31 -6 32 C-5.67 23.75 -5.34 15.5 -5 7 C-5.99 7 -6.98 7 -8 7 C-8 5.35 -8 3.7 -8 2 C-5.09 0.74 -3.2 0 0 0 Z " fill="#010101" transform="translate(260,224)"/>
<path d="M0 0 C0.05 4.63 0.09 9.25 0.11 13.88 C0.12 15.45 0.13 17.03 0.15 18.6 C0.18 20.86 0.19 23.13 0.2 25.39 C0.21 26.09 0.22 26.79 0.23 27.52 C0.23 31.16 0.13 33.96 -2 37 C-4.76 38.38 -6.95 38.19 -10 38 C-12 36 -12 36 -12.12 33.38 C-12.08 32.59 -12.04 31.81 -12 31 C-10.68 30.67 -9.36 30.34 -8 30 C-7.67 30.99 -7.34 31.98 -7 33 C-6.34 33 -5.68 33 -5 33 C-5 24.42 -5 15.84 -5 7 C-5.99 6.67 -6.98 6.34 -8 6 C-8 4.68 -8 3.36 -8 2 C-5.09 0.74 -3.2 0 0 0 Z " fill="#010101" transform="translate(292,224)"/>
<path d="M0 0 C2.06 1.62 2.06 1.62 3 4 C3 7.06 3 7.06 2 10 C-0.83 12.51 -2.34 13.01 -6.12 12.94 C-9 12 -9 12 -10.94 10.25 C-12 8 -12 8 -11.88 5.44 C-9.75 -0.49 -5.87 -1.09 0 0 Z " fill="#000000" transform="translate(256,149)"/>
<path d="M0 0 C1.32 0.33 2.64 0.66 4 1 C3.34 2.32 2.68 3.64 2 5 C3.98 5 5.96 5 8 5 C8.2 9.9 7.57 13.39 6 18 C5.55 20.99 5.25 23.99 5 27 C4.34 27 3.68 27 3 27 C3.43 19.97 4.74 13.67 7 7 C6.01 7.5 6.01 7.5 5 8 C3.48 8.08 1.95 8.11 0.43 8.1 C-0.47 8.09 -1.36 8.09 -2.29 8.09 C-3.22 8.08 -4.16 8.07 -5.12 8.06 C-6.07 8.06 -7.01 8.05 -7.99 8.05 C-10.33 8.04 -12.66 8.02 -15 8 C-14.67 7.01 -14.34 6.02 -14 5 C-14 5.66 -14 6.32 -14 7 C-12.04 6.8 -10.08 6.56 -8.12 6.31 C-7.03 6.18 -5.94 6.06 -4.82 5.93 C-1.77 5.28 -1.77 5.28 -0.62 2.42 C-0.41 1.62 -0.21 0.82 0 0 Z " fill="#E28F34" transform="translate(118,130)"/>
<path d="M0 0 C0.99 0.99 1.98 1.98 3 3 C0.68 7.52 -1.99 10.01 -6 13 C-6.66 13 -7.32 13 -8 13 C-8 12.34 -8 11.68 -8 11 C-7.01 11 -6.02 11 -5 11 C-5.66 9.35 -6.32 7.7 -7 6 C-5 4 -5 4 -2.94 3.56 C-1.98 3.28 -1.98 3.28 -1 3 C-0.67 2.01 -0.34 1.02 0 0 Z " fill="#ED8F2B" transform="translate(129,194)"/>
<path d="M0 0 C0.66 0 1.32 0 2 0 C1.36 7.53 -0.2 14.67 -2 22 C-2.33 22 -2.66 22 -3 22 C-2.67 18.04 -2.34 14.08 -2 10 C-2.99 10.5 -2.99 10.5 -4 11 C-3.34 8.36 -2.68 5.72 -2 3 C-1.34 3 -0.68 3 0 3 C0 2.01 0 1.02 0 0 Z " fill="#DD8B31" transform="translate(141,161)"/>
<path d="M0 0 C1.32 0.33 2.64 0.66 4 1 C4.62 3.38 4.62 3.38 5 6 C4.34 6.66 3.68 7.32 3 8 C0.88 7.62 0.88 7.62 -1 7 C-1.62 5.19 -1.62 5.19 -2 3 C-1.34 2.01 -0.68 1.02 0 0 Z " fill="#020202" transform="translate(288,213)"/>
<path d="M0 0 C2.06 0.44 2.06 0.44 4 1 C4 2.98 4 4.96 4 7 C2.12 7.62 2.12 7.62 0 8 C-0.66 7.34 -1.32 6.68 -2 6 C-1.44 1.44 -1.44 1.44 0 0 Z " fill="#010101" transform="translate(256,213)"/>
<path d="M0 0 C2.06 0.44 2.06 0.44 4 1 C4.62 3.38 4.62 3.38 5 6 C4.34 6.66 3.68 7.32 3 8 C2.01 8 1.02 8 0 8 C-0.38 5.67 -0.71 3.34 -1 1 C-0.67 0.67 -0.34 0.34 0 0 Z " fill="#010101" transform="translate(299,213)"/>
<path d="M0 0 C0.33 0.66 0.66 1.32 1 2 C-8.41 4.48 -8.41 4.48 -13 3 C-13 2.67 -13 2.34 -13 2 C-8.71 1.34 -4.42 0.68 0 0 Z " fill="#E38C2D" transform="translate(104,195)"/>
<path d="M0 0 C0.99 0 1.98 0 3 0 C1.9 2.99 1.32 3.85 -1.62 5.25 C-2.41 5.5 -3.19 5.75 -4 6 C-4 5.34 -4 4.68 -4 4 C-3.01 4 -2.02 4 -1 4 C-0.67 2.68 -0.34 1.36 0 0 Z " fill="#E18D32" transform="translate(125,201)"/>
<path d="" fill="#000000" transform="translate(0,0)"/>
<path d="" fill="#000000" transform="translate(0,0)"/>
<path d="" fill="#000000" transform="translate(0,0)"/>
<path d="" fill="#000000" transform="translate(0,0)"/>
<path d="" fill="#000000" transform="translate(0,0)"/>
<path d="" fill="#000000" transform="translate(0,0)"/>
<path d="" fill="#000000" transform="translate(0,0)"/>
<path d="" fill="#000000" transform="translate(0,0)"/>
<path d="" fill="#000000" transform="translate(0,0)"/>
<path d="" fill="#000000" transform="translate(0,0)"/>
<path d="" fill="#000000" transform="translate(0,0)"/>
<path d="" fill="#000000" transform="translate(0,0)"/>
<path d="" fill="#000000" transform="translate(0,0)"/>
<path d="" fill="#000000" transform="translate(0,0)"/>
<path d="" fill="#000000" transform="translate(0,0)"/>
<path d="" fill="#000000" transform="translate(0,0)"/>
<path d="" fill="#FFFF00" transform="translate(0,0)"/>
<path d="" fill="#AAAAAA" transform="translate(0,0)"/>
</svg>
